<svg width="28" height="28" viewBox="0 0 28 28" fill="none" xmlns="http://www.w3.org/2000/svg">
<path d="M24.126 3.5L16.6755 24.1322C16.6252 24.2419 16.5444 24.3349 16.4428 24.4001C16.3412 24.4653 16.2231 24.5 16.1023 24.5C15.9816 24.5 15.8634 24.4653 15.7619 24.4001C15.6603 24.3349 15.5795 24.2419 15.5292 24.1322L11.5174 16.1086L3.49377 12.0968C3.38403 12.0465 3.29103 11.9657 3.22583 11.8641C3.16064 11.7625 3.12598 11.6444 3.12598 11.5236C3.12598 11.4029 3.16064 11.2847 3.22583 11.1831C3.29103 11.0815 3.38403 11.0008 3.49377 10.9505L24.126 3.5Z" stroke="#3ECAE3" stroke-width="2.33333" stroke-linecap="round" stroke-linejoin="round"/>
</svg>
