<svg width="47" height="48" viewBox="0 0 47 48" fill="none" xmlns="http://www.w3.org/2000/svg">
<g clip-path="url(#clip0_158_1639)">
<rect y="0.5" width="47" height="47" rx="10.1609" fill="#3ECAE3"/>
<circle cx="44.5518" cy="48.96" r="11.7242" fill="white" fill-opacity="0.15"/>
<circle cx="4.48227e-05" cy="-1.06294" r="11.7242" fill="white" fill-opacity="0.15"/>
<path d="M60.9655 48.9601C60.9655 58.0252 53.6168 65.3739 44.5517 65.3739C35.4866 65.3739 20.6496 59.4001 20.6496 50.335C12.9857 44.6742 34.0234 34.3683 47.6152 32.3579C56.6803 32.3579 60.9655 39.895 60.9655 48.9601Z" fill="white" fill-opacity="0.15"/>
<path d="M-20.7756 0.702513C-20.7756 -8.36259 -13.4269 -15.7113 -4.36177 -15.7113C4.70334 -15.7113 19.5404 -9.73747 19.5404 -0.672365C27.2042 4.98839 6.16654 15.2943 -7.42528 17.3047C-16.4904 17.3047 -20.7756 9.76762 -20.7756 0.702513Z" fill="white" fill-opacity="0.15"/>
<path d="M5.54875 35.3901L8.90575 15.1691H10.7521L9.21183 24.4404H20.6849L22.2252 15.1691H24.0715L20.7145 35.3901H18.8682L20.4084 26.0991H8.93537L7.3951 35.3901H5.54875Z" fill="white"/>
<path d="M22.187 15.0954H24.3197L28.743 32.7098H28.9306L39.1695 15.0954H41.3022L37.9452 35.3164H36.2075L38.9326 18.9954H38.7746L29.2268 35.3164H27.5483L23.4508 18.9954H23.2928L20.5677 35.3164H18.83L22.187 15.0954Z" fill="white"/>
</g>
<defs>
<clipPath id="clip0_158_1639">
<rect y="0.5" width="47" height="47" rx="10.1609" fill="white"/>
</clipPath>
</defs>
</svg>
