<svg width="25" height="24" viewBox="0 0 25 24" fill="none" xmlns="http://www.w3.org/2000/svg">
<path d="M8.00489 16.1501V14.9059H10.0787C10.0241 15.1133 9.98124 15.3169 9.95024 15.5168C9.92007 15.7159 9.90171 15.9274 9.89519 16.1514L8.00489 16.1501ZM7.84217 22.3962C6.3699 22.3962 5.11542 21.8815 4.07871 20.8521C3.04201 19.8227 2.52365 18.5664 2.52365 17.0833V5.79066C1.96085 5.79066 1.48287 5.5949 1.08972 5.20338C0.696574 4.81103 0.5 4.32869 0.5 3.75634V2.05796C0.5 1.48561 0.696574 0.999534 1.08972 0.59972C1.48287 0.199907 1.96085 0 2.52365 0H13.135C13.6978 0 14.1799 0.199907 14.5812 0.59972C14.9816 0.998704 15.1819 1.48478 15.1819 2.05796V3.75634C15.1819 4.32869 14.9816 4.81103 14.5812 5.20338C14.1799 5.5949 13.6978 5.79066 13.135 5.79066V10.4404C12.9433 10.5756 12.7651 10.7191 12.6003 10.8709C12.4356 11.0227 12.279 11.1877 12.1305 11.3661H8.00612V10.1218H11.9115V5.79066H3.74715V17.0846C3.74715 18.2326 4.14682 19.1977 4.94617 19.9799C5.74551 20.7621 6.71085 21.1528 7.84217 21.152C8.37561 21.152 8.87276 21.057 9.33361 20.867C9.79364 20.6771 10.2047 20.4158 10.5669 20.0832C10.6517 20.2905 10.7451 20.4809 10.8471 20.6543C10.949 20.8276 11.0644 21.0031 11.1933 21.1806C10.7365 21.5605 10.2259 21.8578 9.6615 22.0727C9.09706 22.2884 8.49062 22.3962 7.84217 22.3962ZM2.52365 4.54643H13.135C13.3552 4.54643 13.5473 4.47053 13.7113 4.31873C13.876 4.16693 13.9584 3.97947 13.9584 3.75634V2.05796C13.9584 1.834 13.876 1.64239 13.7113 1.48313C13.5465 1.32386 13.3544 1.24423 13.135 1.24423H2.52365C2.30343 1.24423 2.11542 1.32386 1.95962 1.48313C1.80383 1.64239 1.72512 1.834 1.72349 2.05796V3.75634C1.72349 3.9803 1.80179 4.16776 1.9584 4.31873C2.11582 4.47053 2.30424 4.54643 2.52365 4.54643ZM17.4172 20.2909C18.3683 20.2909 19.1786 19.9504 19.8483 19.2694C20.5171 18.5884 20.8515 17.7643 20.8515 16.7971C20.8515 15.83 20.5171 15.0063 19.8483 14.3261C19.1786 13.6443 18.3683 13.3033 17.4172 13.3033C16.467 13.3033 15.657 13.6443 14.9874 14.3261C14.3177 15.0063 13.9829 15.83 13.9829 16.7971C13.9829 17.7643 14.3173 18.5884 14.9861 19.2694C15.655 19.9504 16.4653 20.2905 17.4172 20.2897M23.657 24L20.2594 20.5448C19.8426 20.8666 19.3931 21.1121 18.9111 21.2814C18.4299 21.4506 17.9319 21.5352 17.4172 21.5352C16.1236 21.5352 15.0237 21.0744 14.1175 20.1528C13.2113 19.2313 12.7586 18.1127 12.7594 16.7971C12.7602 15.4816 13.2129 14.363 14.1175 13.4414C15.022 12.5199 16.1219 12.0595 17.4172 12.0603C18.7125 12.0612 19.8124 12.5215 20.717 13.4414C21.6215 14.3613 22.0742 15.4799 22.075 16.7971C22.075 17.3197 21.9923 17.8261 21.8267 18.3163C21.6603 18.8057 21.4188 19.2628 21.1024 19.6875L24.5 23.1427L23.657 24Z" fill="white"/>
</svg>
