<svg width="75" height="79" viewBox="0 0 75 79" fill="none" xmlns="http://www.w3.org/2000/svg">
<path d="M26.4781 56.9678V52.5789H33.7948C33.602 53.3104 33.4509 54.0287 33.3415 54.7338C33.2351 55.4361 33.1703 56.1822 33.1473 56.9722L26.4781 56.9678ZM25.904 79C20.7097 79 16.2837 77.1845 12.6261 73.5534C8.96849 69.9223 7.13968 65.491 7.13968 60.2594V20.4259C5.15404 20.4259 3.46768 19.7354 2.08061 18.3543C0.693537 16.9704 0 15.2689 0 13.2501V7.25922C0 5.24033 0.693537 3.52574 2.08061 2.11545C3.46768 0.705149 5.15404 0 7.13968 0H44.5777C46.5633 0 48.2641 0.705149 49.6799 2.11545C51.0929 3.52282 51.7994 5.23741 51.7994 7.25922V13.2501C51.7994 15.2689 51.0929 16.9704 49.6799 18.3543C48.2641 19.7354 46.5633 20.4259 44.5777 20.4259V36.8272C43.9014 37.3041 43.2726 37.8103 42.6913 38.3457C42.11 38.8812 41.5575 39.4634 41.0338 40.0925H26.4824V35.7036H40.2611V20.4259H11.4563V60.2638C11.4563 64.3133 12.8664 67.7176 15.6866 70.4768C18.5068 73.2359 21.9126 74.614 25.904 74.6111C27.7861 74.6111 29.54 74.2761 31.166 73.6061C32.789 72.936 34.2394 72.0144 35.5171 70.8411C35.8164 71.5725 36.1459 72.244 36.5056 72.8556C36.8653 73.4671 37.2725 74.0859 37.7272 74.7121C36.1157 76.0521 34.3142 77.1011 32.3228 77.8589C30.3314 78.6196 28.1918 79 25.904 79ZM7.13968 16.037H44.5777C45.3547 16.037 46.0324 15.7693 46.6108 15.2338C47.1921 14.6984 47.4828 14.0371 47.4828 13.2501V7.25922C47.4828 6.46922 47.1921 5.79333 46.6108 5.23156C46.0295 4.66978 45.3518 4.38889 44.5777 4.38889H7.13968C6.36269 4.38889 5.69937 4.66978 5.14972 5.23156C4.60007 5.79333 4.32237 6.46922 4.31662 7.25922V13.2501C4.31662 14.0401 4.59288 14.7013 5.14541 15.2338C5.70081 15.7693 6.36557 16.037 7.13968 16.037Z" fill="#C5EFF7"/>
<path d="M72.7949 52.5244H59.5645V39.2967C59.5645 38.712 59.3322 38.1513 58.9186 37.7378C58.5051 37.3244 57.9442 37.0921 57.3594 37.0921C56.7746 37.0921 56.2137 37.3244 55.8002 37.7378C55.3867 38.1513 55.1544 38.712 55.1544 39.2967V52.5244H41.9239C41.3391 52.5244 40.7782 52.7567 40.3647 53.1701C39.9512 53.5836 39.7189 54.1443 39.7189 54.729C39.7189 55.3137 39.9512 55.8745 40.3647 56.2879C40.7782 56.7014 41.3391 56.9337 41.9239 56.9337H55.1544V70.1614C55.1544 70.7461 55.3867 71.3068 55.8002 71.7203C56.2137 72.1337 56.7746 72.366 57.3594 72.366C57.9442 72.366 58.5051 72.1337 58.9186 71.7203C59.3322 71.3068 59.5645 70.7461 59.5645 70.1614V56.9337H72.7949C73.3798 56.9337 73.9406 56.7014 74.3541 56.2879C74.7677 55.8745 75 55.3137 75 54.729C75 54.1443 74.7677 53.5836 74.3541 53.1701C73.9406 52.7567 73.3798 52.5244 72.7949 52.5244Z" fill="#C5EFF7"/>
</svg>
