<svg width="48" height="48" viewBox="0 0 48 48" fill="none" xmlns="http://www.w3.org/2000/svg">
<rect width="48" height="48" rx="24" fill="#C5EFF7"/>
<path fill-rule="evenodd" clip-rule="evenodd" d="M17.8575 15.1205C17.8575 11.7193 20.6824 9 24.1177 9C26.8741 9 29.2367 10.7493 30.0644 13.2009C30.0562 13.2214 30.0481 13.242 30.0402 13.2626C30.2037 13.8626 30.291 14.4941 30.291 15.1459C30.291 15.7852 30.2071 16.4048 30.0496 16.9945C30.0551 17.0087 30.0608 17.0229 30.0664 17.0371C29.2409 19.4883 26.8773 21.241 24.1194 21.241C20.6824 21.241 17.8575 18.5218 17.8575 15.1205ZM24.1194 10.7487C21.6059 10.7487 19.6066 12.7265 19.6066 15.1205C19.6066 17.5145 21.6059 19.4923 24.1177 19.4923C26.6312 19.4923 28.6287 17.5145 28.6287 15.1205C28.6287 12.7265 26.6312 10.7487 24.1194 10.7487Z" fill="#3ECAE3"/>
<path fill-rule="evenodd" clip-rule="evenodd" d="M18.4435 23.2591C19.353 23.009 20.2398 23.3045 20.8818 23.719C21.5692 24.1649 22.7114 24.714 24.1194 24.714C25.5275 24.714 26.6661 24.1632 27.3553 23.719C27.9955 23.3045 28.8823 23.009 29.7918 23.2591C30.0728 23.336 30.3521 23.4188 30.6297 23.5074L32.3508 24.06C34.3711 24.7053 35.9278 26.3053 36.4525 28.3234L36.4648 28.3706L37.1942 33.5066C37.46 35.3812 36.428 37.2768 34.4165 37.7437C32.3561 38.2211 29.0152 38.7282 24.1177 38.7282C19.2201 38.7282 15.8792 38.2211 13.8188 37.7437C11.809 37.2768 10.7753 35.3812 11.0411 33.5066L11.7705 28.3706L11.7828 28.3234C12.3093 26.3053 13.8642 24.707 15.8845 24.06L17.6074 23.5074C17.8849 23.4199 18.1636 23.3372 18.4435 23.2591ZM19.932 25.1844C19.5489 24.9378 19.1781 24.8679 18.907 24.9431V24.9448C18.6504 25.0148 18.3951 25.0906 18.1409 25.1722L16.418 25.723C14.9592 26.1899 13.8677 27.3231 13.4899 28.7151L12.7728 33.7514C12.6154 34.8636 13.2153 35.8061 14.2141 36.0387C16.1346 36.4829 19.339 36.9778 24.1177 36.9778C28.8963 36.9778 32.1024 36.4829 34.0212 36.0387C35.0217 35.8061 35.6217 34.8636 35.4643 33.7514L34.7471 28.7151C34.3676 27.3231 33.2744 26.1899 31.8173 25.723L30.0962 25.1704C29.8408 25.0888 29.5849 25.013 29.3283 24.9431C29.0572 24.8696 28.6864 24.9396 28.3051 25.1844C27.4497 25.7387 25.9805 26.461 24.1177 26.461C22.2566 26.461 20.7873 25.7387 19.932 25.1844Z" fill="#3ECAE3"/>
</svg>
