<svg width="109" height="108" viewBox="0 0 109 108" fill="none" xmlns="http://www.w3.org/2000/svg">
<rect x="0.5" width="108" height="108" rx="54" fill="#C5EFF7"/>
<path fill-rule="evenodd" clip-rule="evenodd" d="M39.7551 33.2809C39.7551 25.6985 46.0525 19.6365 53.7108 19.6365C59.855 19.6365 65.1217 23.5355 66.9673 29.0001C66.9487 29.0465 66.9305 29.093 66.9125 29.1396C67.2766 30.4764 67.471 31.8832 67.471 33.3354C67.471 34.7596 67.284 36.1402 66.9333 37.454C66.9463 37.487 66.9593 37.52 66.9725 37.5528C65.1324 43.0176 59.8629 46.9252 53.7147 46.9252C46.0525 46.9252 39.7551 40.8632 39.7551 33.2809ZM53.7147 23.5349C48.1113 23.5349 43.6544 27.944 43.6544 33.2809C43.6544 38.6178 48.1113 43.0268 53.7108 43.0268C59.3141 43.0268 63.7671 38.6178 63.7671 33.2809C63.7671 27.944 59.3141 23.5349 53.7147 23.5349ZM41.0614 51.424C43.089 50.8665 45.066 51.5254 46.497 52.4493C48.0295 53.4434 50.5757 54.6675 53.7147 54.6675C56.8536 54.6675 59.3921 53.4395 60.9284 52.4493C62.3555 51.5254 64.3325 50.8665 66.3601 51.424C66.9865 51.5955 67.6092 51.7801 68.2279 51.9776L72.0648 53.2095C76.5685 54.648 80.0389 58.215 81.2087 62.7137L81.236 62.819L82.862 74.2686C83.4547 78.4477 81.1541 82.6735 76.6699 83.7144C72.0765 84.7787 64.6288 85.9092 53.7108 85.9092C42.7927 85.9092 35.345 84.7787 30.7516 83.7144C26.2713 82.6735 23.9668 78.4477 24.5595 74.2686L26.1855 62.819L26.2128 62.7137C27.3865 58.215 30.853 54.6519 35.3567 53.2095L39.1975 51.9776C39.8162 51.7826 40.4375 51.5981 41.0614 51.424ZM44.3797 55.7161C43.5258 55.1665 42.6991 55.0105 42.0947 55.1781V55.182C41.5228 55.338 40.9535 55.5069 40.3868 55.6888L36.546 56.9168C33.294 57.9577 30.8608 60.4839 30.0185 63.587L28.4198 74.8144C28.0689 77.2937 29.4063 79.395 31.6329 79.9135C35.9143 80.9037 43.0578 82.0069 53.7108 82.0069C64.3637 82.0069 71.5111 80.9037 75.7887 79.9135C78.0191 79.395 79.3565 77.2937 79.0056 74.8144L77.4069 63.587C76.5607 60.4839 74.1237 57.9577 70.8755 56.9168L67.0386 55.6849C66.4693 55.503 65.8987 55.3341 65.3268 55.1781C64.7224 55.0144 63.8958 55.1703 63.0457 55.7161C61.1389 56.9519 57.8635 58.562 53.7108 58.562C49.5619 58.562 46.2865 56.9519 44.3797 55.7161Z" fill="#3ECAE3"/>
</svg>
