<svg width="24" height="24" viewBox="0 0 24 24" fill="none" xmlns="http://www.w3.org/2000/svg">
<path d="M22 8.66703V5.33297C22 4.44901 21.6488 3.60126 21.0238 2.97621C20.3987 2.35115 19.551 2 18.667 2H15.333M15.333 22H18.667C19.551 22 20.3987 21.6488 21.0238 21.0238C21.6488 20.3987 22 19.551 22 18.667V15.333M2 15.333V18.667C2 19.551 2.35115 20.3987 2.97621 21.0238C3.60126 21.6488 4.44901 22 5.33297 22H8.66703M8.66703 2H5.33297C4.44901 2 3.60126 2.35115 2.97621 2.97621C2.35115 3.60126 2 4.44901 2 5.33297V8.66703M9.22486 5.33297H6.30595C6.0479 5.33297 5.80042 5.43548 5.61795 5.61795C5.43548 5.80042 5.33297 6.0479 5.33297 6.30595V9.22486C5.33297 9.48291 5.43548 9.73039 5.61795 9.91286C5.80042 10.0953 6.0479 10.1978 6.30595 10.1978H9.22486C9.48291 10.1978 9.73039 10.0953 9.91286 9.91286C10.0953 9.73039 10.1978 9.48291 10.1978 9.22486V6.30595C10.1978 6.0479 10.0953 5.80042 9.91286 5.61795C9.73039 5.43548 9.48291 5.33297 9.22486 5.33297ZM9.22486 13.7816H6.30595C6.0479 13.7816 5.80042 13.8841 5.61795 14.0666C5.43548 14.2491 5.33297 14.4965 5.33297 14.7546V17.6735C5.33297 17.9316 5.43548 18.179 5.61795 18.3615C5.80042 18.544 6.0479 18.6465 6.30595 18.6465H9.22486C9.48291 18.6465 9.73039 18.544 9.91286 18.3615C10.0953 18.179 10.1978 17.9316 10.1978 17.6735V14.7546C10.1978 14.4965 10.0953 14.2491 9.91286 14.0666C9.73039 13.8841 9.48291 13.7816 9.22486 13.7816ZM17.6941 5.33297H14.7751C14.5171 5.33297 14.2696 5.43548 14.0871 5.61795C13.9047 5.80042 13.8022 6.0479 13.8022 6.30595V9.22486C13.8022 9.48291 13.9047 9.73039 14.0871 9.91286C14.2696 10.0953 14.5171 10.1978 14.7751 10.1978H17.6941C17.9521 10.1978 18.1996 10.0953 18.382 9.91286C18.5645 9.73039 18.667 9.48291 18.667 9.22486V6.30595C18.667 6.0479 18.5645 5.80042 18.382 5.61795C18.1996 5.43548 17.9521 5.33297 17.6941 5.33297ZM17.6941 13.8022H14.7751C14.5171 13.8022 14.2696 13.9047 14.0871 14.0871C13.9047 14.2696 13.8022 14.5171 13.8022 14.7751V17.6941C13.8022 17.9521 13.9047 18.1996 14.0871 18.382C14.2696 18.5645 14.5171 18.667 14.7751 18.667H17.6941C17.9521 18.667 18.1996 18.5645 18.382 18.382C18.5645 18.1996 18.667 17.9521 18.667 17.6941V14.7751C18.667 14.5171 18.5645 14.2696 18.382 14.0871C18.1996 13.9047 17.9521 13.8022 17.6941 13.8022Z" stroke="white" stroke-width="1.2" stroke-linecap="round" stroke-linejoin="round"/>
</svg>
