<svg width="84" height="84" viewBox="0 0 84 84" fill="none" xmlns="http://www.w3.org/2000/svg">
<path d="M81 29.0014V15.9986C81 12.5512 79.6305 9.24491 77.1928 6.8072C74.7551 4.36949 71.4488 3 68.0014 3H54.9986M54.9986 81H68.0014C71.4488 81 74.7551 79.6305 77.1928 77.1928C79.6305 74.7551 81 71.4488 81 68.0014V54.9986M3 54.9986V68.0014C3 71.4488 4.36949 74.7551 6.8072 77.1928C9.24491 79.6305 12.5512 81 15.9986 81H29.0014M29.0014 3H15.9986C12.5512 3 9.24491 4.36949 6.8072 6.8072C4.36949 9.24491 3 12.5512 3 15.9986V29.0014M70.7106 54.9447H61.2511C59.5785 54.9447 57.9745 55.6091 56.7918 56.7918C55.6091 57.9745 54.9447 59.5785 54.9447 61.2511V70.7106M70.7106 70.7106V70.7422M42.3319 26.566V36.0255C42.3319 37.6981 41.6675 39.3021 40.4848 40.4848C39.3021 41.6675 37.6981 42.3319 36.0255 42.3319H26.566M13.9532 42.3319H13.9847M42.3319 13.9532H42.3635M42.3319 54.9447V54.9762M54.9447 42.3319H58.0979M70.7106 42.3319V42.3634M42.3319 70.7106V67.5574M17.1064 13.9532H26.566C28.3074 13.9532 29.7191 15.3649 29.7191 17.1064V26.566C29.7191 28.3074 28.3074 29.7191 26.566 29.7191H17.1064C15.3649 29.7191 13.9532 28.3074 13.9532 26.566V17.1064C13.9532 15.3649 15.3649 13.9532 17.1064 13.9532ZM58.0979 13.9532H67.5575C69.2989 13.9532 70.7106 15.3649 70.7106 17.1064V26.566C70.7106 28.3074 69.2989 29.7191 67.5575 29.7191H58.0979C56.3564 29.7191 54.9447 28.3074 54.9447 26.566V17.1064C54.9447 15.3649 56.3564 13.9532 58.0979 13.9532ZM17.1064 54.9447H26.566C28.3074 54.9447 29.7191 56.3564 29.7191 58.0979V67.5575C29.7191 69.2989 28.3074 70.7106 26.566 70.7106H17.1064C15.3649 70.7106 13.9532 69.2989 13.9532 67.5575V58.0979C13.9532 56.3564 15.3649 54.9447 17.1064 54.9447Z" stroke="#C5EFF7" stroke-width="4.8" stroke-linecap="round" stroke-linejoin="round"/>
</svg>
