<svg width="57" height="69" viewBox="0 0 57 69" fill="none" xmlns="http://www.w3.org/2000/svg">
<g filter="url(#filter0_d_235_2786)">
<path d="M43.205 46.1633L29.8533 61.4374C29.3583 62.0037 28.7611 62.455 28.0983 62.7634C27.4355 63.0719 26.7211 63.231 25.9991 63.231C25.2772 63.231 24.5628 63.0719 23.9 62.7634C23.2372 62.455 22.64 62.0037 22.145 61.4374L8.79329 46.1633H8.84358L8.82108 46.1347L8.79329 46.0991C5.36606 41.7319 3.48984 36.1949 3.49918 30.4756C3.49918 17.0855 13.5725 6.23102 25.9991 6.23102C38.4258 6.23102 48.4991 17.0855 48.4991 30.4756C48.5084 36.1949 46.6322 41.7319 43.205 46.0991L43.1772 46.1347L43.1547 46.1633H43.205Z" fill="#3ECAE3"/>
<path d="M19.1297 37.731L22.0274 20.2765H25.1894L22.7348 35.0805H30.4223L29.9791 37.731H19.1297Z" fill="white"/>
<path d="M43.205 46.1633L29.8533 61.4374C29.3583 62.0037 28.7611 62.455 28.0983 62.7634C27.4355 63.0719 26.7211 63.231 25.9991 63.231C25.2772 63.231 24.5628 63.0719 23.9 62.7634C23.2372 62.455 22.64 62.0037 22.145 61.4374L8.79329 46.1633H8.84358L8.82108 46.1347L8.79329 46.0991C5.36607 41.7319 3.48984 36.1949 3.49918 30.4756C3.49918 17.0855 13.5725 6.23102 25.9991 6.23102C38.4257 6.23102 48.4991 17.0855 48.4991 30.4756C48.5084 36.1949 46.6322 41.7319 43.205 46.0991L43.1772 46.1347L43.1547 46.1633H43.205ZM40.6334 43.8543C43.5826 40.1219 45.1986 35.3777 45.1903 30.4756C45.1903 19.055 36.598 9.7964 25.9991 9.7964C15.4003 9.7964 6.808 19.055 6.808 30.4756C6.79972 35.3777 8.41565 40.1219 11.3649 43.8543L11.7726 44.372L24.5539 58.9915C24.7395 59.2039 24.9634 59.3731 25.212 59.4888C25.4605 59.6045 25.7284 59.6641 25.9991 59.6641C26.2699 59.6641 26.5378 59.6045 26.7863 59.4888C27.0349 59.3731 27.2588 59.2039 27.4444 58.9915L40.2257 44.372L40.6334 43.8543Z" fill="white"/>
</g>
<defs>
<filter id="filter0_d_235_2786" x="0.874146" y="0.981018" width="55.5" height="67.5" filterUnits="userSpaceOnUse" color-interpolation-filters="sRGB">
<feFlood flood-opacity="0" result="BackgroundImageFix"/>
<feColorMatrix in="SourceAlpha" type="matrix" values="0 0 0 0 0 0 0 0 0 0 0 0 0 0 0 0 0 0 127 0" result="hardAlpha"/>
<feOffset dx="2.625"/>
<feGaussianBlur stdDeviation="2.625"/>
<feComposite in2="hardAlpha" operator="out"/>
<feColorMatrix type="matrix" values="0 0 0 0 0.172549 0 0 0 0 0.803922 0 0 0 0 0.678431 0 0 0 0.1 0"/>
<feBlend mode="normal" in2="BackgroundImageFix" result="effect1_dropShadow_235_2786"/>
<feBlend mode="normal" in="SourceGraphic" in2="effect1_dropShadow_235_2786" result="shape"/>
</filter>
</defs>
</svg>
