<svg width="60" height="34" viewBox="0 0 60 34" fill="none" xmlns="http://www.w3.org/2000/svg">
<path d="M17.5 32V29.5C17.5 26.1848 18.817 23.0054 21.1612 20.6612C23.5054 18.317 26.6848 17 30 17M30 17C33.3152 17 36.4946 18.317 38.8388 20.6612C41.183 23.0054 42.5 26.1848 42.5 29.5V32M30 17C31.9891 17 33.8968 16.2098 35.3033 14.8033C36.7098 13.3968 37.5 11.4891 37.5 9.5C37.5 7.51088 36.7098 5.60322 35.3033 4.1967C33.8968 2.79018 31.9891 2 30 2C28.0109 2 26.1032 2.79018 24.6967 4.1967C23.2902 5.60322 22.5 7.51088 22.5 9.5C22.5 11.4891 23.2902 13.3968 24.6967 14.8033C26.1032 16.2098 28.0109 17 30 17ZM2.5 32V29.5C2.5 27.5109 3.29018 25.6032 4.6967 24.1967C6.10322 22.7902 8.01088 22 10 22M10 22C11.3261 22 12.5979 21.4732 13.5355 20.5355C14.4732 19.5979 15 18.3261 15 17C15 15.6739 14.4732 14.4021 13.5355 13.4645C12.5979 12.5268 11.3261 12 10 12C8.67392 12 7.40215 12.5268 6.46447 13.4645C5.52678 14.4021 5 15.6739 5 17C5 18.3261 5.52678 19.5979 6.46447 20.5355C7.40215 21.4732 8.67392 22 10 22ZM57.5 32V29.5C57.5 27.5109 56.7098 25.6032 55.3033 24.1967C53.8968 22.7902 51.9891 22 50 22M50 22C51.3261 22 52.5979 21.4732 53.5355 20.5355C54.4732 19.5979 55 18.3261 55 17C55 15.6739 54.4732 14.4021 53.5355 13.4645C52.5979 12.5268 51.3261 12 50 12C48.6739 12 47.4021 12.5268 46.4645 13.4645C45.5268 14.4021 45 15.6739 45 17C45 18.3261 45.5268 19.5979 46.4645 20.5355C47.4021 21.4732 48.6739 22 50 22Z" stroke="#3ECAE3" stroke-width="4" stroke-linecap="round" stroke-linejoin="round"/>
</svg>
