<svg width="18" height="18" viewBox="0 0 18 18" fill="none" xmlns="http://www.w3.org/2000/svg">
<path d="M9.64256 12.8572C9.64256 13.0277 9.57483 13.1912 9.45427 13.3118C9.33371 13.4323 9.17019 13.5 8.9997 13.5C8.8292 13.5 8.66569 13.4323 8.54513 13.3118C8.42457 13.1912 8.35684 13.0277 8.35684 12.8572C8.35684 12.6867 8.42457 12.5232 8.54513 12.4026C8.66569 12.2821 8.8292 12.2143 8.9997 12.2143C9.17019 12.2143 9.33371 12.2821 9.45427 12.4026C9.57483 12.5232 9.64256 12.6867 9.64256 12.8572ZM8.51756 10.7679C8.51756 10.8958 8.56835 11.0184 8.65877 11.1088C8.74919 11.1992 8.87183 11.25 8.9997 11.25C9.12757 11.25 9.25021 11.1992 9.34062 11.1088C9.43104 11.0184 9.48184 10.8958 9.48184 10.7679V6.58932C9.48184 6.46145 9.43104 6.33882 9.34062 6.2484C9.25021 6.15798 9.12757 6.10718 8.9997 6.10718C8.87183 6.10718 8.74919 6.15798 8.65877 6.2484C8.56835 6.33882 8.51756 6.46145 8.51756 6.58932V10.7679ZM7.4517 2.68075C8.12413 1.46318 9.87527 1.46254 10.5477 2.68075L16.4941 13.4486C17.1447 14.627 16.2923 16.0715 14.9468 16.0715H3.05777C1.71227 16.0715 0.859198 14.6276 1.50977 13.4493L7.4517 2.68075ZM9.70298 3.14683C9.63352 3.02115 9.53164 2.91638 9.40796 2.84343C9.28427 2.77047 9.1433 2.73199 8.9997 2.73199C8.8561 2.73199 8.71512 2.77047 8.59144 2.84343C8.46776 2.91638 8.36588 3.02115 8.29641 3.14683L2.35384 13.9153C2.2863 14.0377 2.25185 14.1756 2.25389 14.3153C2.25593 14.4551 2.29439 14.5919 2.36547 14.7123C2.43655 14.8326 2.5378 14.9323 2.65921 15.0016C2.78062 15.0709 2.91799 15.1073 3.05777 15.1072H14.9461C15.0858 15.1071 15.2231 15.0707 15.3445 15.0014C15.4658 14.9321 15.5669 14.8323 15.6379 14.712C15.709 14.5917 15.7474 14.4549 15.7494 14.3152C15.7514 14.1755 15.7169 14.0377 15.6494 13.9153L9.70298 3.14683Z" fill="#FF3E06"/>
</svg>
