<svg width="60" height="60" viewBox="0 0 60 60" fill="none" xmlns="http://www.w3.org/2000/svg">
<path d="M34.2223 40.5557H25.7778M51.1112 32.1112C45.9242 29.5208 38.3875 27.8889 30 27.8889C21.6125 27.8889 14.0758 29.5208 8.88879 32.1112M19.4444 36.3334C17.7647 36.3334 16.1538 37.0007 14.966 38.1884C13.7783 39.3761 13.111 40.9871 13.111 42.6668C13.111 44.3465 13.7783 45.9574 14.966 47.1451C16.1538 48.3329 17.7647 49.0001 19.4444 49.0001C21.1241 49.0001 22.735 48.3329 23.9228 47.1451C25.1105 45.9574 25.7778 44.3465 25.7778 42.6668C25.7778 40.9871 25.1105 39.3761 23.9228 38.1884C22.735 37.0007 21.1241 36.3334 19.4444 36.3334ZM40.5556 36.3334C38.8759 36.3334 37.265 37.0007 36.0773 38.1884C34.8895 39.3761 34.2223 40.9871 34.2223 42.6668C34.2223 44.3465 34.8895 45.9574 36.0773 47.1451C37.265 48.3329 38.8759 49.0001 40.5556 49.0001C42.2353 49.0001 43.8463 48.3329 45.034 47.1451C46.2217 45.9574 46.889 44.3465 46.889 42.6668C46.889 40.9871 46.2217 39.3761 45.034 38.1884C43.8463 37.0007 42.2353 36.3334 40.5556 36.3334Z" stroke="white" stroke-width="4" stroke-linecap="round" stroke-linejoin="round"/>
<path d="M44.7779 28.9444L42.5443 14.6141C42.0904 11.6923 38.9153 10.109 36.3524 11.5255L35.0541 12.2433C33.5074 13.1002 31.7682 13.5498 30 13.5498C28.2318 13.5498 26.4927 13.1002 24.946 12.2433L23.6477 11.5255C21.0848 10.1111 17.9096 11.6944 17.4557 14.6141L15.2222 28.9444" stroke="white" stroke-width="4" stroke-linecap="round" stroke-linejoin="round"/>
</svg>
