<svg width="44" height="44" viewBox="0 0 44 44" fill="none" xmlns="http://www.w3.org/2000/svg">
<path d="M4 23L13 7.41154H31L40 23L31 38.5885H13L4 23Z" fill="#FF3E06"/>
<path d="M23.8118 30.4015C23.8118 30.8411 23.611 31.2626 23.2535 31.5734C22.8961 31.8842 22.4114 32.0588 21.9059 32.0588C21.4004 32.0588 20.9156 31.8842 20.5582 31.5734C20.2008 31.2626 20 30.8411 20 30.4015C20 29.962 20.2008 29.5405 20.5582 29.2297C20.9156 28.9188 21.4004 28.7442 21.9059 28.7442C22.4114 28.7442 22.8961 28.9188 23.2535 29.2297C23.611 29.5405 23.8118 29.962 23.8118 30.4015ZM20.4765 25.0153C20.4765 25.345 20.6271 25.6612 20.8951 25.8943C21.1632 26.1274 21.5268 26.2583 21.9059 26.2583C22.285 26.2583 22.6486 26.1274 22.9166 25.8943C23.1847 25.6612 23.3353 25.345 23.3353 25.0153V14.243C23.3353 13.9133 23.1847 13.5972 22.9166 13.3641C22.6486 13.131 22.285 13 21.9059 13C21.5268 13 21.1632 13.131 20.8951 13.3641C20.6271 13.5972 20.4765 13.9133 20.4765 14.243V25.0153Z" fill="white"/>
</svg>
