<svg width="24" height="24" viewBox="0 0 24 24" fill="none" xmlns="http://www.w3.org/2000/svg">
<path d="M1 4.70526C1 3.40842 1 2.76 1.25242 2.26442C1.47444 1.8287 1.8287 1.47444 2.26442 1.25242C2.76 1 3.40842 1 4.70526 1H19.2947C20.5916 1 21.24 1 21.7356 1.25242C22.1713 1.47444 22.5256 1.8287 22.7476 2.26442C23 2.76 23 3.40842 23 4.70526V19.2947C23 20.5916 23 21.24 22.7476 21.7356C22.5256 22.1713 22.1713 22.5256 21.7356 22.7476C21.24 23 20.5916 23 19.2947 23H4.70526C3.40842 23 2.76 23 2.26442 22.7476C1.8287 22.5256 1.47444 22.1713 1.25242 21.7356C1 21.24 1 20.5916 1 19.2947V4.70526Z" stroke="white" stroke-width="1.2" stroke-linecap="round"/>
<path d="M19.5263 23L12.5789 5.35294M23 3L1 7.70588M12.5789 15.3882C12.5789 17.9271 10.1011 19.7106 9.02074 20.3682C8.87138 20.4593 8.70049 20.5074 8.52632 20.5074C8.35215 20.5074 8.18125 20.4593 8.03189 20.3682C6.95158 19.7106 4.47368 17.9271 4.47368 15.3871C4.47368 12.8965 6.43747 11.2353 8.52632 11.2353C10.6881 11.2353 12.5789 12.8965 12.5789 15.3882Z" stroke="white" stroke-width="1.2"/>
<path d="M8.5 16C9.05228 16 9.5 15.5523 9.5 15C9.5 14.4477 9.05228 14 8.5 14C7.94772 14 7.5 14.4477 7.5 15C7.5 15.5523 7.94772 16 8.5 16Z" fill="white"/>
</svg>
