<svg width="18" height="18" viewBox="0 0 18 18" fill="none" xmlns="http://www.w3.org/2000/svg">
<path d="M9.498 16.8397C9.35294 16.9439 9.17884 16.9999 9.00024 16.9999C8.82164 16.9999 8.64754 16.9439 8.50248 16.8397C4.21017 13.7803 -0.345234 7.48714 4.25995 2.93974C5.52421 1.69609 7.22682 0.999466 9.00024 1.00024C10.778 1.00024 12.4837 1.698 13.7405 2.93885C18.3457 7.48626 13.7903 13.7785 9.498 16.8397Z" stroke="black" stroke-width="1.125" stroke-linecap="round" stroke-linejoin="round"/>
<path d="M9.00038 8.9999C9.47186 8.9999 9.92403 8.8126 10.2574 8.47921C10.5908 8.14583 10.7781 7.69366 10.7781 7.22218C10.7781 6.7507 10.5908 6.29853 10.2574 5.96514C9.92403 5.63175 9.47186 5.44446 9.00038 5.44446C8.5289 5.44446 8.07673 5.63175 7.74334 5.96514C7.40995 6.29853 7.22266 6.7507 7.22266 7.22218C7.22266 7.69366 7.40995 8.14583 7.74334 8.47921C8.07673 8.8126 8.5289 8.9999 9.00038 8.9999Z" stroke="black" stroke-width="1.125" stroke-linecap="round" stroke-linejoin="round"/>
</svg>
