<svg width="24" height="24" viewBox="0 0 24 24" fill="none" xmlns="http://www.w3.org/2000/svg">
<path d="M23 8.33373V4.66627C23 3.69392 22.6137 2.76138 21.9262 2.07383C21.2386 1.38627 20.3061 1 19.3337 1L15.6663 1M15.6663 23H19.3337C20.3061 23 21.2386 22.6137 21.9262 21.9262C22.6137 21.2386 23 20.3061 23 19.3337V15.6663M1 15.6663L1 19.3337C1 20.3061 1.38627 21.2386 2.07383 21.9262C2.76138 22.6137 3.69392 23 4.66627 23H8.33373M8.33373 1L4.66627 1C3.69392 1 2.76138 1.38627 2.07383 2.07383C1.38627 2.76138 1 3.69392 1 4.66627L1 8.33373M20.0979 15.6511H17.4298C16.958 15.6511 16.5056 15.8385 16.172 16.172C15.8385 16.5056 15.6511 16.958 15.6511 17.4298V20.0979M20.0979 20.0979V20.1068M12.0936 7.64681V10.3149C12.0936 10.7866 11.9062 11.2391 11.5726 11.5726C11.2391 11.9062 10.7866 12.0936 10.3149 12.0936H7.64681M4.08936 12.0936H4.09826M12.0936 4.08936H12.1025M12.0936 15.6511V15.66M15.6511 12.0936H16.5404M20.0979 12.0936V12.1025M12.0936 20.0979V19.2085M4.97872 4.08936H7.64681C8.13799 4.08936 8.53617 4.48754 8.53617 4.97872V7.64681C8.53617 8.13799 8.13799 8.53617 7.64681 8.53617H4.97872C4.48754 8.53617 4.08936 8.13799 4.08936 7.64681V4.97872C4.08936 4.48754 4.48754 4.08936 4.97872 4.08936ZM16.5404 4.08936H19.2085C19.6997 4.08936 20.0979 4.48754 20.0979 4.97872V7.64681C20.0979 8.13799 19.6997 8.53617 19.2085 8.53617H16.5404C16.0492 8.53617 15.6511 8.13799 15.6511 7.64681V4.97872C15.6511 4.48754 16.0492 4.08936 16.5404 4.08936ZM4.97872 15.6511H7.64681C8.13799 15.6511 8.53617 16.0492 8.53617 16.5404V19.2085C8.53617 19.6997 8.13799 20.0979 7.64681 20.0979H4.97872C4.48754 20.0979 4.08936 19.6997 4.08936 19.2085V16.5404C4.08936 16.0492 4.48754 15.6511 4.97872 15.6511Z" stroke="white" stroke-width="1.14445" stroke-linecap="round" stroke-linejoin="round"/>
</svg>
