<svg width="60" height="60" viewBox="0 0 60 60" fill="none" xmlns="http://www.w3.org/2000/svg">
<path d="M32.5 38.75C32.5 39.413 32.2366 40.0489 31.7678 40.5178C31.2989 40.9866 30.663 41.25 30 41.25C29.337 41.25 28.7011 40.9866 28.2322 40.5178C27.7634 40.0489 27.5 39.413 27.5 38.75C27.5 38.087 27.7634 37.4511 28.2322 36.9822C28.7011 36.5134 29.337 36.25 30 36.25C30.663 36.25 31.2989 36.5134 31.7678 36.9822C32.2366 37.4511 32.5 38.087 32.5 38.75ZM31.875 18.125C31.875 17.6277 31.6775 17.1508 31.3258 16.7992C30.9742 16.4475 30.4973 16.25 30 16.25C29.5027 16.25 29.0258 16.4475 28.6742 16.7992C28.3225 17.1508 28.125 17.6277 28.125 18.125V29.375C28.125 29.8723 28.3225 30.3492 28.6742 30.7008C29.0258 31.0525 29.5027 31.25 30 31.25C30.4973 31.25 30.9742 31.0525 31.3258 30.7008C31.6775 30.3492 31.875 29.8723 31.875 29.375V18.125Z" fill="white"/>
<path d="M28.65 1.5924C29.5275 1.30774 30.4725 1.30774 31.35 1.5924L51.975 8.2799C52.8539 8.56502 53.62 9.12109 54.1634 9.86841C54.7068 10.6157 54.9997 11.5159 55 12.4399V24.9999C55 40.4749 45.575 51.7624 31.4975 57.0749C30.5322 57.4383 29.4678 57.4383 28.5025 57.0749C14.4275 51.7599 5 40.4749 5 24.9999V12.4399C5 10.5399 6.225 8.8649 8.025 8.2799L28.65 1.5924ZM30.1925 5.1574C30.0674 5.11689 29.9326 5.11689 29.8075 5.1574L9.1825 11.8499C9.05716 11.8905 8.94785 11.9696 8.87018 12.076C8.79251 12.1824 8.75045 12.3107 8.75 12.4424V24.9999C8.75 38.6524 16.95 48.7074 29.825 53.5649C29.9379 53.6071 30.0621 53.6071 30.175 53.5649C43.05 48.7074 51.25 38.6499 51.25 24.9999V12.4399C51.2496 12.3082 51.2075 12.1799 51.1298 12.0735C51.0521 11.9671 50.9428 11.888 50.8175 11.8474L30.1925 5.1574Z" fill="white"/>
</svg>
